/* XPM */
static char *_2ff6f61081741b3d9e63713944ed8b4DeKilwtbTok1WBOI[] = {
/* columns rows colors chars-per-pixel */
"28 28 43 1 ",
"  c #12100F",
". c #161311",
"X c #191514",
"o c #1F1A18",
"O c #221D1B",
"+ c #28211F",
"@ c #2C2522",
"# c #2F2825",
"$ c #322A27",
"% c #352C29",
"& c #382F2C",
"* c #3B312E",
"= c #3E3431",
"- c #413733",
"; c #443936",
": c #473C38",
"> c #493E3A",
", c #4D413D",
"< c #50443F",
"1 c #534541",
"2 c #564944",
"3 c #5A4C46",
"4 c #5D4E49",
"5 c #5F504B",
"6 c #62534D",
"7 c #665651",
"8 c #6C5B55",
"9 c #6F5E58",
"0 c #705F58",
"q c #74625C",
"w c #78655F",
"e c #7A6760",
"r c #7D6963",
"t c #816C65",
"y c #846F68",
"u c #867169",
"i c #89736C",
"p c #947D74",
"a c #9C847B",
"s c #A0877E",
"d c #A1887F",
"f c #A48B82",
"g c #A88E84",
/* pixels */
"X*=**XO#@@@.@&&&&OO%$%$oO%%.",
"-tttt>yaaaa,7tttt>7apaa77tt=",
";yyuy,ifdff18uyyy>0gfff88yy-",
"+<,>,$16122@*:;;>+=2357:-11O",
"=u4>8888%10000%;4355=9iiiii-",
"<fq4uuuy;ygffg<6iiui2ifffff2",
"-i4>9988$2q00w&;6456-8uuyyy-",
"+1<,1%16334%->>>,$>5357:-22O",
";yyyy2pdfff48uuuu2yffff87uy=",
"-rttt1usaaa27tttt<edasd76ur=",
"O>;-;$><>12=;>=><*>2>14-=>>O",
">p71wwwq:epppp2wpppp46wwwew=",
"<fq4uuuy1iffff6uffff79uuuyy-",
"%w<-6424%40990-30990;>43444#",
"+8780%:1<11@,7667&&21<1&1q9%",
"-dffd<0uuuu=wgffg24uuuu2rff1",
"*pppp;7wwww%9pppp,<wwww>qpp-",
"O1-$=$*=@=:%;<$#&@@$+;1>144@",
",a02rrrr;raaaa>1rwre,tddaaa1",
"1fw2uyyy:ydfff,4yyyy1ugdfff1",
"#6:%>;--@-,>23#&>;--@>22576#",
"#eerr$>5444@2eeet;-6444*6iy=",
"-ffff>0iyuu=eggff66uuuu2rff1",
"@8000$>5442@1q00q*;5566*7iu=",
"@3=$>;:>O-2122#$>;:>$:41466#",
"1f04iyyy;tgfff>4yyuu2ufffff1",
"1a93trtr=eappa>2rerr,tdaaaa,",
"O;#O%%%$.o@@@@ .OOOO.&>>,>>O"
};
