/* XPM */
static char *_1702ff0ce55431ebc55fa4f525ac8efkKxJnGlcTNqX79df[] = {
/* columns rows colors chars-per-pixel */
"28 28 176 2 ",
"   c #7D4E3E",
".  c #544854",
"X  c #634D4F",
"o  c #675747",
"O  c #6F594C",
"+  c #775441",
"@  c #755B46",
"#  c #7B5B47",
"$  c #72574E",
"%  c #755E4E",
"&  c #7C5D4D",
"*  c #675F54",
"=  c #6D5D52",
"-  c #6D5B59",
";  c #735E54",
":  c #7D5D50",
">  c #796145",
",  c #756649",
"<  c #7B604F",
"1  c #6E6953",
"2  c #726355",
"3  c #7D6553",
"4  c #766D56",
"5  c #7C6954",
"6  c #7D675A",
"7  c #776A5A",
"8  c #7B6C5C",
"9  c #7E725C",
"0  c #767467",
"q  c #7D7264",
"w  c #8E542F",
"e  c #A2643F",
"r  c #A46434",
"t  c #855544",
"y  c #855B45",
"u  c #8C5C46",
"i  c #86544D",
"p  c #845C4B",
"a  c #8C5D4B",
"s  c #915743",
"d  c #925A44",
"f  c #925D4C",
"g  c #9A5B4A",
"h  c #855D51",
"j  c #8B5F52",
"k  c #925E50",
"l  c #985F53",
"z  c #826545",
"x  c #8B6244",
"c  c #84624D",
"v  c #8C614C",
"b  c #8D6C4F",
"n  c #936146",
"m  c #9D6246",
"M  c #93624D",
"N  c #9A654D",
"B  c #95694D",
"V  c #9A6C4D",
"C  c #836453",
"Z  c #8B6452",
"A  c #846A55",
"S  c #8C6A55",
"D  c #836559",
"F  c #8A645A",
"G  c #856B5B",
"H  c #8C6B5B",
"J  c #936553",
"K  c #9A6453",
"L  c #936A55",
"P  c #9B6B55",
"I  c #926659",
"U  c #9C6558",
"Y  c #936C5C",
"T  c #9B6C5B",
"R  c #847057",
"E  c #8B7455",
"W  c #85715B",
"Q  c #8D745C",
"!  c #947156",
"~  c #9A7154",
"^  c #93735B",
"/  c #9B735C",
"(  c #93795F",
")  c #9E7C5B",
"_  c #A26344",
"`  c #AA6343",
"'  c #A96840",
"]  c #AE674E",
"[  c #A26A4F",
"{  c #AC6D4C",
"}  c #AB7245",
"|  c #A4724A",
" . c #A06756",
".. c #A36D53",
"X. c #AE6A57",
"o. c #A36E5B",
"O. c #B46D51",
"+. c #A37255",
"@. c #A97657",
"#. c #AD7E50",
"$. c #A3745D",
"%. c #AB725C",
"&. c #A27B5D",
"*. c #A9795C",
"=. c #B5735B",
"-. c #856D62",
";. c #8B6D63",
":. c #876F6B",
">. c #926560",
",. c #936D62",
"<. c #996E63",
"1. c #906A69",
"2. c #827362",
"3. c #8C7263",
"4. c #8C7C64",
"5. c #857468",
"6. c #8D756B",
"7. c #8C7B68",
"8. c #937463",
"9. c #9B7362",
"0. c #947864",
"q. c #9B7A65",
"w. c #94766A",
"e. c #9B7469",
"r. c #95796C",
"t. c #9A7C6C",
"y. c #9D7470",
"u. c #977D70",
"i. c #9E7D76",
"p. c #9C7D78",
"a. c #A86E63",
"s. c #A37665",
"d. c #A27D65",
"f. c #AD7C63",
"g. c #A4726A",
"h. c #AD7168",
"j. c #A47968",
"k. c #A57C68",
"l. c #A47E69",
"z. c #A47B6A",
"x. c #B67861",
"c. c #B07C64",
"v. c #B87A61",
"b. c #B0776C",
"n. c #B17F68",
"m. c #B07A6E",
"M. c #A27A70",
"N. c #A37B7B",
"B. c #AC805D",
"V. c #AA845F",
"C. c #8B806C",
"Z. c #9A8067",
"A. c #9F806B",
"S. c #9A806F",
"D. c #8B8177",
"F. c #928074",
"G. c #90837D",
"H. c #9D867E",
"J. c #A18061",
"K. c #A5816B",
"L. c #A5826E",
"P. c #A7846E",
"I. c #A6866F",
"U. c #B18465",
"Y. c #B2826C",
"T. c #B7836D",
"R. c #B8816C",
"E. c #A08071",
"W. c #AC8673",
"Q. c #AA8479",
"!. c #B58873",
"~. c #B48976",
"^. c #BC8D7B",
"/. c #918F83",
"(. c #A49085",
"). c #B8968C",
/* pixels */
"U.v./.~.n.u.X.8.t.x.@./ Y J c F Y p C Z u P / P +.N N N ",
"T.).R.W.K.*.(.E.] ^ a.{ *.g.Y x p K f a L Z p J u u U N ",
"Q.Y.^.!.d.r.W.S.4.+.! P M S d f M u M J J J j y v u n a ",
"q.l.B.E.i.$.z.&.%.2.e. .L >.j K N K u y M a i Z K J v a ",
"L.) J.A.9.b.f./ u.8.4.8 h u n P T M k K c a a K M T K L ",
"j.I.U.J.$.@.Y 0.r.f.$.H Z B n l J j a Z J a y M L P P T ",
"$.l.9.&.L b 0.0.9.4.G 5 / P V n T Y Z C J Y J <.P / P P ",
"*.J.N.L ^ u.E Y ^ w.3.Y S p a K T c J I S Y ^ P P T Z J ",
"=.&.! T f.7.H t.t.H Z L E p I ! <.H J I ,.I I 8.T 9.( G ",
"t.7.| | V H 9 L t.( E ^ q.0.W 9.( H H S c Z H H J $.k.l.",
"i.*.+.W B +.} B n ^ A A ^ q.j.H L / Z a y J v ! J J K P ",
"t.G.@.m e %.e.| &.J A 4.3.Y S 0.J u c Z a I L v Z I / $.",
"e.0.w.Q #.+...S.P 9.;.w.<.9.d.Y T H a t S J f Y c J P U ",
"0.5.O.q.H.h.) 9.a.e.<.T s.j.o.9.T f L J l U L d L K K N ",
"6.] 0.r.{ 9.e.,.( T v c Y K S J a Z j a Z M u v d M K K ",
"{ 7.d.8.Z I ^ 6.9.L ~ B J I L u K u a J f M n m m x x v ",
"3.1.:.I P A H ,.3.Y Q A Z 3.0.U 8.A Z V I P { B ` _ x B ",
"H A V ^ j.T q A D 5 N V Q <./ A L Y b J n V P m B x Z Q ",
",.~ *.A -.G v A W L ! ^ K I G B S 9 b H 6 L n u M Z u a ",
"8.1.q 5.,.z.H 4.8.+.( S n c A v z J y x c x w c Z K 3 > ",
"9.;.0 G h.e.G H T 6.T B 8 Y P 8 c d -.P r Y r.| Q 4 n 9.",
"T ~ / c 0.6.H J 3.P Q q L H 5.H >.8 K Z 3.V B G v g 8 +.",
"S Z.[ S 3.m.8.5  .Q G Z 5 4 Z 8 5 i o o u v H _ M A d C ",
"9 F 6 % s.G Q >.G 3.^ G H 9.3.8 X , 2 . = C B K u t # S ",
"9.0.;.8.M.e.G G D 3.G 2 8 A H G C v : 2 3 F F s p # # i ",
"S G D -.,.F A ,.5.r.;.-.;.D -.5 ; < j I S Y F @ # + +   ",
"F D $ = D Z 3 h G ;.;.2.G S e.G 2 h p h p h h 3 p # p p ",
"e.6.; = G ,.H F f C G 7 1 D T I A a : 0 -.3 -.T D & D J "
};
