/* XPM */
static char *_a355711ba094c71ad367527915d921csUY3sDehuX1DX1Vx[] = {
/* columns rows colors chars-per-pixel */
"64 64 195 2 ",
"   c #4D4739",
".  c #504136",
"X  c #5C4D37",
"o  c #53453A",
"O  c #574C3E",
"+  c #5C4C3B",
"@  c #5D5137",
"#  c #5B523E",
"$  c #674F35",
"%  c #684F34",
"&  c #614E3B",
"*  c #665035",
"=  c #6C5335",
"-  c #64533D",
";  c #6B543C",
":  c #6C5A3D",
">  c #735535",
",  c #785735",
"<  c #745A36",
"1  c #7C5C36",
"2  c #72563C",
"3  c #78563D",
"4  c #745B3C",
"5  c #7B5D3B",
"6  c #7D6135",
"7  c #75613E",
"8  c #7D623C",
"9  c #7E683E",
"0  c #504744",
"q  c #5C4F47",
"w  c #5D5345",
"e  c #5E5349",
"r  c #655343",
"t  c #6B5542",
"y  c #6C5A44",
"u  c #62574C",
"i  c #655C4C",
"p  c #6C5C4A",
"a  c #715643",
"s  c #745C43",
"d  c #7A5E42",
"f  c #725E4B",
"g  c #795E49",
"h  c #665C51",
"j  c #6D5D53",
"k  c #6F6047",
"l  c #756244",
"z  c #7D6343",
"x  c #7E6944",
"c  c #74634B",
"v  c #7C644B",
"b  c #736A4F",
"n  c #7C6A4C",
"m  c #6D6356",
"M  c #6C655B",
"N  c #746353",
"B  c #7B6653",
"V  c #726852",
"C  c #7D6B53",
"Z  c #73675B",
"A  c #7C6D5B",
"S  c #7F7155",
"D  c #7E7359",
"F  c #835E34",
"G  c #825E3A",
"H  c #836436",
"J  c #8A6435",
"K  c #866936",
"L  c #8B6A36",
"P  c #83643C",
"I  c #8B653C",
"U  c #85693D",
"Y  c #8B6B3D",
"T  c #926736",
"R  c #906937",
"E  c #92663B",
"W  c #926C3D",
"Q  c #9A6E3D",
"!  c #8E703D",
"~  c #937235",
"^  c #987637",
"/  c #93723D",
"(  c #9A733E",
")  c #9A793F",
"_  c #835E43",
"`  c #885E45",
"'  c #836542",
"]  c #896642",
"[  c #856A43",
"{  c #8B6C43",
"}  c #82664A",
"|  c #896649",
" . c #856B4B",
".. c #8A6C4B",
"X. c #926D43",
"o. c #996E40",
"O. c #926E4A",
"+. c #877046",
"@. c #8D7144",
"#. c #85704C",
"$. c #8C724B",
"%. c #8F784E",
"&. c #937344",
"*. c #987441",
"=. c #9A7443",
"-. c #9B7742",
";. c #997544",
":. c #957844",
">. c #9B7A43",
",. c #9C7A43",
"<. c #917348",
"1. c #92754A",
"2. c #93744B",
"3. c #95744A",
"4. c #96754A",
"5. c #93774C",
"6. c #92744F",
"7. c #987548",
"8. c #9B754A",
"9. c #98744E",
"0. c #93794B",
"q. c #977848",
"w. c #95784C",
"e. c #99784B",
"r. c #9C7B48",
"t. c #9C7B4B",
"y. c #806650",
"u. c #816752",
"i. c #836C52",
"p. c #846D50",
"a. c #8A6D51",
"s. c #8A6D52",
"d. c #806D5B",
"f. c #836D5D",
"g. c #916D51",
"h. c #867251",
"j. c #847253",
"k. c #877657",
"l. c #8C7353",
"z. c #897551",
"x. c #8C7455",
"c. c #8B7857",
"v. c #8C7954",
"b. c #85755B",
"n. c #8A7158",
"m. c #8B745B",
"M. c #88765A",
"N. c #8F7659",
"B. c #8D765C",
"V. c #86785A",
"C. c #8C7A5C",
"Z. c #937453",
"A. c #9A7650",
"S. c #977950",
"D. c #957953",
"F. c #957B52",
"G. c #987850",
"H. c #9B7C53",
"J. c #957458",
"K. c #927D59",
"L. c #927A5C",
"P. c #937B5E",
"I. c #A07442",
"U. c #A17844",
"Y. c #A07A4C",
"T. c #866E65",
"R. c #837365",
"E. c #8B7462",
"W. c #857C60",
"Q. c #8B7B64",
"!. c #847669",
"~. c #8B7F69",
"^. c #907963",
"/. c #937C63",
"(. c #90776A",
"). c #907C6F",
"_. c #8A7B70",
"`. c #9D8046",
"'. c #9D804F",
"]. c #978155",
"[. c #9D8254",
"{. c #928059",
"}. c #93815A",
"|. c #958158",
" X c #96805A",
".X c #94815D",
"XX c #9B865B",
"oX c #A38346",
"OX c #A3834C",
"+X c #8F8164",
"@X c #938362",
"#X c #938165",
"$X c #9B8565",
"%X c #918268",
"&X c #94836B",
/* pixels */
"..| { | n.} B s.s.| d.f $.$./ W Y *.4.;.#.#.V.+Xb.|.k.n h. .{ ] [ { %.$.n.n C  .p.} D y B.F...P.r.r.X.N.$.z.b.#Xz.}.#.n 0.9.9.O.",
"Y I U '  .| ' ' ' ' ] s { ( R Y X.W *.*.{ h.+.#. .! U 9 [ W Y U ] Y { &.[ } z z 9 9 ' l $.{ $.&.Y Y {  .U $.+.+. .! Y U l.4.&.] ",
"Y z I ] Z 5 5 ' 5 ' ' v Y ( ( { Y / *.*.+.+.@.+.{ +.K [ ' { W [ Y Y @.4.z l 4 ' 8 z 9 z $.{ U { { ] Y  .{ { @.+.Y @.K [ w.7.*.X.",
"] { ] {  .} d { d { ] d 4.7.7...] &.e.2.@.$.@..X$.0.&.l w.$.$. . ...5...#.[ s  .4 [ [ l %.5.1.w.$.0.@.n @.&.&.K.$.&.&.z D.D.7.&.",
"l.$.c.K.z.5.K. .X.` | | ] | ] z v ' x [  .z  .@.c.@.) r.K.$.D.Q.&.{ X.] ..' ] ] ! [ [ #. .{  .[ { b [  ...n ' k.x U Y [ [ d U [ ",
"Y .. .{ { { R Y X.X.] ] W W W ] { [ 9 P U K U U [ &.! ! / ;.&.w.Y ] ! P Y ' { U U ! [ U ! ! ~ U { U P U ' ' [ [ K U L 6 H 9 U P ",
"Y Y X.{ { U J Y ] J E G E T E Q 8 8 4 ' 6 8 K U x ! U { ! Y @.:./ Y Y J P U P [ [ K Y K ! L ! / [ P z 6 ' 5 8 m U L K 6 6 9 4 H ",
"@.&.X.5.{ *.W X.] E I ] ] X.] {  .H 8 U K Y Y { n &.:.:.0.&.:.C.Y Y J Y U [ ] { [ Y U U U Y Y { { K U U K 4 z { 9 K H K K 9 U [ ",
"%.:. .Q.| | ` d d 3 G 2 { [ x < 7 U #.n #. .c .. .$.[ l i.g } B  .v A 4 #.n V.&Xz.@XV.n h.n.x n B [ [ D #.@X].v.C.C.{.S S V.n b.",
"{ @.@. .X.X.I G F G G > &.@.U Y Y ! ! $.{ +.[ { U ! { { ' ] ' P P P U [ Y #.$.+.+.! L U $.@.[ ] @.{ &.! ^ ~ ! &.+.1.:.9 #.@.%.@.",
"[ [ { n { ] E I G > G > / ! ! U Y ~ / $.+.9 [ K U { @.[ P 8 < ' 5 d P ] Y { $.{ Y { K { +.{ ' 9 { H U ! / ! / @.! :.! U @.+. .Y ",
"$.@.{  .X.X.X.I G 1 G , :.1.@.{  .@.@.#.@. .+. .Y ! { 9 ' ' 5 U P Y K ] @.@.&.F.@.&.Y [ v.$. .{ @.{ +.+.:.^ *.&.`.:./ $.j.0.$.%.",
"..| | _ _ 3 5 G o s t t O O & 5 s C k.x W.c f l 8 ; & p y : s ; : h r p B f f D c V.@XS +XD n n 9 z 2 * * 5 s 2 y A C.b W.V y y ",
"&.X.X.I I G H G d ] Y I ] [ ] { L H K [ [ U [ U +.@.[ U ! ! Y {  .[ [ ' ' }  . .! L / +.{ +.$.Y I ] 5 P G F H d P H K } z [ [ 9 ",
"X.X.W R I > G G P I I ] P ] U ] Y H P U U U P K [ Y Y U Y Y ! ! { P z 8 v 5 z z ! K { Y @.&.Y ! I P P G 5 I H P U 6 P P ' [ P 8 ",
"3.4.o.W I F I I ' ' ' ' d P P ] Y J Y U $.Y K [ 8 K P 8 [ { U @.$.[ [ 9 U z z  .@.W / @.0.! @.@.{ ] I G ' ' ] ] ] U U P $.] U [ ",
"} | a T.* O @ O - X & e r 5 d t s d } f ; s t t f t $ > r V.j.V D b b b = p - - s t t j _ f d d d g z d v c C Q.n /.i.y Z f.f A ",
"X.X.4.s.U U H 9 9 8 [ 4 I L I { G X.{ { X.W W Q Y ] X.{ ~ Y ! +.+.@.+.U [ U U U P 8 { l X.&./ H ] ] { ] ] X.{ { { W J I Z.O.s.4.",
"..| ] | U 6 8 < z 7 8 - E J F I G G E ..( Q W W I E L [ ! K ! ! @.@.! ! Y H 9 1 ' 5 8 t W W W K { ] 8 U I I X.{ I E I I Z.X.O.O.",
"3.3.3.u.{ K U 6 K 4 8 l I Y I I ] I ] x.W { I I P I I 5 @.! ! +.%.! :.$.] K K K L 5 8 z / / Y Y { { { { { W W 4.X.E E ] p.9.O.9.",
"z 9 l 4 @ < 7 - O # S # A   + - d.v v C t y p 4 p - g v v f z c : C j.k R.b t l 2 s 5 g g ; 5 3 v l z * = 7 x [ N t t z - - i 2 ",
"U U U H 7 6 P U 9 6 9 z l x x 8 4.&.| { { &./ &.2.{ X.'  .} .. .K K 9 U 9 9 x 6 Y Y L 1 U 8 I ] +./ Y W ! K @.&.] [ 5 8 U J U U ",
"[ 6 H z z U K U H 8 8 8 x 9 9 9 ..{ ] ] U { Y &.$...{ ] ' | ' | K 1 6 K U U H 6 Y I J J F P 5 P $./ ~ Y Y Y ! / a 8 1 P 1 5 H Y ",
"@.U 9 { 9 K [ 9 z U U 9 #.[ [ z 2.[ P / Y / ! 1.] { { { .... .$.Y K Y 9 $.U U U H K J U U [ P U @.&.@.[ { { &.&.' 6 < J 1 K K U ",
"v a a B - e + O r r r q } i.d d c _ G f ; s t t f t = < : : = $ = = l 4 z z a t } u.v v X b.n c C k k t 8 9 a d }  . .z d c s t ",
"P 5 { | ' ] ' ' z d ' s X.W ] E W W Q W ] W R Y ] ] ] ] 8 Y H K K H K Y ' U ] { X.O.O.s.K 6 9 z z x 9 8 U Y Y / W &.0.&.U I 5 ] ",
"_ 1 d d ' 5 z 5 d 5 d u X.I I I W G E L W R T W G U J x H K K 8 6 J K Y ] ' 5 { &.4.w...H 6 9 9 9 x 9 6 K Y 6 Y / ,.:.@.I F G 1 ",
"G 5 G | } P U 8 P d d c 2.X.| ] W W T X.] ] I ' H H Y 4 U I U [ 9 U U U { { ] { &.7.D. .[ H P 8 [ U U [ ! Y Y Y / ,.r.{ ] G I G ",
"z ] P a z [ { Y 0 a s r t s y r 3 + . . + + & & ; N s l v v c i.r 8 4 k a s } c : 4 * * y z v z &X#.w.D.Q.n.N.!.w c c B B r - z ",
"] ] P P U Y Y X.U X.[ ] ' '  . .[ ] ' ' P ' ] ' ' U U P U P { ] K Y U Y U U Y  .= 8 8 H 8 U { +.D.:.,.0.r.].t.F.x ! { Y [  .{ @.",
"Y Y Y ] { Y H ] P P d | d 5 '  .z G ' 5 ] I I ] { H 8 H ' , 8 [ Y H 6 [ 8 8 K  .< 8 = H Y Y { { w.&.$.w.:.$.:.].{ Y Y { 9 [ K  .",
"] { W U X.] { O.' ' ] ] } }  .i.8 P 5 d d ' d ' [ Y Y H I 5 H ..{ U U U H [ [ $.< P 8 8 U Y $.+.c.:.r.e.'.e.[.C.z x [ ' z [ K @.",
"$ z b c E.} ] | v t f 0 z z s z v 8 : z U +.[ [ 7 9 9 @ a ] ` i.c ' s. .] ' G 2 > ] } f x.X.*.&.l.s.s.T.z ' s v }  .z f z  .l : ",
"I H Y  ...&.{ X.O.6.1.v 9 ] z P 8 Y [ U @.! U P 6 9 U 4 E o.E ] ] X.X...Q X.I I T J W  .{ ( / ( / ;.,.9.[ ] ' ] H Y { P Y ] P I ",
"U I Y .. .] | ' { ] { v P 5 8 8 6 U Y ! U K H ] U ! Y 8 E I G o.G I E O.Q W E I E E R  .{ Y X.] / { *.7.[ z ' H H Y Y H { I U 8 ",
"}  .]  .p.X.3.&.5.5.5.!.{ z ] [ K J U U @.+.[ &.U U Y 4 ] E E ] | ] X.P.Q X.I I ] X.W P &.*.*.*.*.,.r./.{ ' [ ] ] Y [ 8 { ..] ' ",
"z P P 2 U P U U t u a c v f f f d d s d d _ v ' ] ] ` ` ` g.9.9.u.} d f v _ d f l d z v v 4 z z ] 4 g u.u.} } v P.O.-.8.P.g.J.(.",
"U J 6 1 F U I Y  .{ { { [ [ ..$.' ' d _ , I ] P 5 I E W E o.o.8.] ' ] _ ] P ] H U [ Y 8 U z [ ' 7.&.X.{ Q X.o.{ O.-.o.( *.8.U.8.",
"K J K U P J H Y $.Y x U  .8 z [ ' 2 G G 1 I I I G E G E o.o.o.7. .I 3 1 ] 1 F I U U K 9 9 8 7 9 { Y W I *.W Q *.] Q X.X.o.X.*.7.",
"H Y I F X.H U Y #.Y @.[ { z [ Z.| ' ' ' ] F ] I E E G E o.I.9.7.n.' ' ' ' G G ' 9 x K U x [ '  .&.Q Y ] ] { X.X...7.I.-.8.-.U./.",
"B z [ C y D k.b S w k k k l t : ; s d f n n D &XS +XS k  .#.v 5 s } i.B ' ' d d | ..| } M.B B s.n v A l B y f B f f m r j.j.z v ",
"@.Y ! Y K 9 8 9 x x 9 : [ [ 9 P ] U I U U n x x x U K 8 { { P [ Y U { i.' U I { { &.&... ...[  .{  .{  .} } z z z P z l $.{ U [ ",
"Y 9 K Y 9 6 8 8 9 x 6 7 [ P 5 4 U 5 6 U U 9 { x U x 8 8 $.] ] ] ] { { ..U P 5 Y X.( 2...[ z z [ P z Y $.M l 3 z 5 8 8 z +.Y 9 8 ",
"@.U Y [ U 9 U x +.x U 7 j.[  .' Y ' U [ +.U { v.[ ! U x ..Z.{ } } .... .{ ] U ] &.e.2. ...[ z @.[ { { $.} z s ] 8 ] ' l l.+. .[ ",
" .l y C C c n v l j.%.l M.S l 7 x N l n n b n M. .{ @.$. .{ $.%.~.Q.m.^.D.9.$.^.n h.}.#.+XS x n ] ' t d | ..s.O./.Z.Y.H.@XJ.P.~.",
"@.+. .{ @.! ! { H H K x 9 9 [ 9 +.@.+.{ [ [ $.$.W ) W / Y Y &.0.D.9.Z.2.&.&.4.$.K J K  .U U +.K 5 P G I G W X...5.8.-.&.,.A.8.H.",
"+.! +.U @.! ! @.K 6 9 H U U K H @.+.[ U [ 9 x [ / L K / U H W &.Z.2. .&.....X. .U H K K U U U K P G 1 I Y X.X...$.X.2.&.7.9.8.H.",
"+.!  .[ [ { #.@.' J Y U w.U U U %.! @.[ @.z [ %.@.W Y / X...&.K.~.A.0.w.3.7.w.n.U ! ! U %.! ! +.] ] G ' W X.6.3.k.7.Y.8.t.r.w./.",
"p s 8 r H | G > > F z + s } 3 4 a 8 _ * ....c.$X%.XXl. ... .] 4 d [ i.C /.7.I.8.A.J.9.T.` ] d _ | O.O.g.R.b. .Q.$.&. .D n B d s ",
"P P ] P E F 1 F F F J ' ] U 5 8 H I I U Y @.{ Y { W L Y { ] z U U U [  .X.o.o.o.7.8.;...G P ] I ] X.O.9.$.@.$.+.U { +.c ' ' 5 z ",
"P 2 5 9 J I F 1 F F F P ' G 5 , G , F H W Y W { I W J Y { Y U z H I ]  .X.X.X.X.Q X.*.| P G 5 I X.o.X.3.#.+.[ { x [ U l z P 5 2 ",
"U 8 P z X.I J 5 G I I 3 $.' ' P U P P ] X.Q Q H.Q Q Q I ..k.' ' v ..] ..Z.o.U.-.8.7.9.(.X.I I ] o.*.6.9.j.$.$.1.@.@.+.k h.z v z ",
"5..... .] _ U ] v A v n.i.u.u.E.P B ] ..| | ] s.B C A b.n k.b.n ] H _ I I X.O.&.B i.z = > d | ' [ s c B B n y s ] d.'  .' } ' n.",
"1.&.W U I U P 8 [ ] | ' ' } ....U U G I P P ] ] 7 [ n z ' P H ] G H F J H W X.{ | H P F H 5 ] ] ] ' z P U U Y z P J I P U G ] X.",
"2.&.&.Y U , 9 P ..] z P | d ' } I J P F G 1 1 V 8 P [ ' z z 6 U P F > J L W &.{ ' I P G G G I { z 6 ] 8 I U U { Y K P F G < G P ",
"2.1.&.&.I P U Y  .{ { z ] d | g.X.I I G E 5 U U ' [ ' l.[ I ] ] I I H H Y Q &.&.d | ] v _ ]  .{ [ [ 9 z z ' ' [ ] I E H T 5 P O.",
"OXOX0.$X+. .{ } ..v [ @ E.J.../.9.7.O./.9.XX[.].].}.].v.+.4 v p... . . .$XoXoXOX[.].[.E.l...X.] { X.4.O.O.| | | ..} ..t /.XXA.$X",
") ,.r.0.{  .{ 8 ' z [ - O.O.O.X.W E X...^ ^ ~ &.! 1.~ 9 { { { U Y Y Y [ 0.) U.) `.t.oX0.[ Q Y E W Y X.*.] { X.G ' z | d r.r.H.U.",
"&.&.,.$.@.Y ] 9 ' z z 4 O.X.{ X.| { I | ^ R ~ / :.) ~ L U K U P Y Y / / :.,.,.&.,.&.r.&.] Q Q X.W W X.*.X.E W G ] ' d d [.:.7.r.",
"r.OX>.c.{ 9 Y ' } x s l s.A.O.9.4.&...i.&.) ,.:.>.:.,.! @.! U { U { [ { 0.`.oXoXOXOXOX&X&.&.....{ X.9.1.{ ] I { | .._ d D.OX`.t.",
"l.Z.Y } ....{ ' [ X.' ' * ] { } v z z v s 5  .v !.C.k.K.0.:.$.C.z.n.X.U P { 0.4.5 U d G ] O.2.&.f.u.C z c s f z z Y 8 G * 8 P 2 ",
"$.{ { [ { W X.I ' ] I H 5 G P [ G U P ' z d ' z #.@.$.@.! ! @. .$.X.{ Y @.[ &.&.< H P J P Y @.&. .' z z 8 9 ] [ 5 1 5 5 > , 5 5 ",
"..X.P G { U I Y ] U P ' ] Y I I P 4 > P 4 3 9 ' +.@.{ @.[  .{ [ $./ &.Y Y X.X.&.6 P , K Y Y @.@.Z 5 3 z 8 z 8 ' 5 1 , 5 5 F 1 1 ",
"K.6... .{ ] { {  .] z ] d ] ' ' [ z z U z n n j.Q.%.%.%.%.0.@.j.Z.4.w. .] @.H.2.8 H 8 U Y / 1.1. .z a U 4 [ [ [ ' P < ' 2 5 ] < "
};
