/* XPM */
static char *ebe0931301884309927de1006026c9a8sYcnc0uCjSj9xRAt[] = {
/* columns rows colors chars-per-pixel */
"28 28 49 1 ",
"  c #D5664D",
". c #D46850",
"X c #D66850",
"o c #D46E58",
"O c #EE6F4F",
"+ c #E16D52",
"@ c #E56D50",
"# c #E56F52",
"$ c #EE7050",
"% c #EE7051",
"& c #ED7252",
"* c #ED7253",
"= c #EE7252",
"- c #E2765D",
"; c #E97A5E",
": c #E97B5F",
"> c #CF8C7E",
", c #E4846C",
"< c #CB968B",
"1 c #CB968C",
"2 c #D69485",
"3 c #DB9787",
"4 c #DA9788",
"5 c #D49B8F",
"6 c #DA9888",
"7 c #DA9889",
"8 c #D89C8E",
"9 c #D89D8F",
"0 c #D79D90",
"q c #D69F93",
"w c #D89D90",
"e c #D89E90",
"r c #D6A093",
"t c #D4A49A",
"y c #CDB2AD",
"u c #CCB5B2",
"i c #CBB8B5",
"p c #C3BDBF",
"a c #BFCFD6",
"s c #BFCFD7",
"d c #BFD0D7",
"f c #BED1D8",
"g c #C5C0C1",
"h c #C6C0C1",
"j c #C6C1C2",
"k c #C5C3C6",
"l c #C2C8CC",
"z c #C2C9CD",
"x c #C2C9CE",
/* pixels */
"*****%ef8**********3f9O***+X",
"*****Oex4*********O3feO***#X",
"*****O9f7%*********6fe****#X",
"******9f7**********6fe****#.",
"*****O5f3***%*%***$6x9*&*%+ ",
"434433usy77e4443673yfu386322",
"dfffdffsxfxfffxfffffffxfxfff",
"0eeeeeeerqertxxt9er0er99rre1",
"**$$$****%*%:jj;&&$&*$$*%*# ",
"***********=:jj;&&&&&&****#.",
"******&&***=:jj:=&&=&*****# ",
"$**$**&&%%=*;jj;====******#.",
":::::::::::;,lk,;;:;:;::::-o",
"jjjjjjjjjjjjkxxkhhjjjjjjjjjp",
"jjjjkjxfxjjjjjkkhhkxxxjjjjjp",
"::::::txr;::::::;,:txt;;::-o",
"**&&&%9x6=*******%*6xr;=**@.",
"**&&&&rf6%******=%&3xr%&**# ",
"**$=**rx6*******=*%3x9%=**#.",
"$$&$**rf6***%%%%**%3x9%&*&#.",
"trrrerifitrrrtrrrtrifprer951",
"xfxxxffxxxxfxfxxxfxxffxxddxf",
"873666976666rxz9876676r8362>",
"*=%*&****%*=:kj:%=======**# ",
"************:jj:**********#X",
"************:jj:**********#X",
"************:jj:**********#X",
"***********=:jj:**********#X"
};
