/* XPM */
static char *da5a8fd45fb34566ba9c3c5560d412f9Y0O5QioUlzAkaLHq[] = {
/* columns rows colors chars-per-pixel */
"28 28 95 2 ",
"   c #130907",
".  c #25100D",
"X  c #2B130F",
"o  c #2E1611",
"O  c #321712",
"+  c #3A1612",
"@  c #341913",
"#  c #3D1C16",
"$  c #3E1E18",
"%  c #431715",
"&  c #461A16",
"*  c #491B17",
"=  c #461D18",
"-  c #4C1E19",
";  c #511F1A",
":  c #4E211B",
">  c #53221B",
",  c #5A231D",
"<  c #632921",
"1  c #752D25",
"2  c #7C2E27",
"3  c #6F3127",
"4  c #743328",
"5  c #7C332A",
"6  c #75392D",
"7  c #7C3C2F",
"8  c #86332A",
"9  c #8B352C",
"0  c #813A2E",
"q  c #92372E",
"w  c #843E31",
"e  c #893D31",
"r  c #8E4636",
"t  c #934335",
"y  c #994436",
"u  c #924738",
"i  c #9C4C3B",
"p  c #A34C3C",
"a  c #A94C3C",
"s  c #A4503E",
"d  c #A8503F",
"f  c #B4503F",
"g  c #BC4F40",
"h  c #AC5341",
"j  c #B45442",
"k  c #BC5543",
"l  c #B55845",
"z  c #BB5946",
"x  c #BE5D48",
"c  c #C15644",
"v  c #C65846",
"b  c #C95947",
"n  c #C15E49",
"m  c #CB5D4A",
"M  c #D45E4B",
"N  c #C7614C",
"B  c #CC604B",
"V  c #C8614C",
"C  c #CE624D",
"Z  c #CD644E",
"A  c #CF644F",
"S  c #D6624D",
"D  c #DB614D",
"F  c #DE634E",
"G  c #DE634F",
"H  c #D26650",
"J  c #D96550",
"K  c #DB6751",
"L  c #D56851",
"P  c #D66851",
"I  c #DF6C54",
"U  c #DF6C55",
"Y  c #E0634F",
"T  c #E1644F",
"R  c #E16450",
"E  c #E46550",
"W  c #E36952",
"Q  c #E46852",
"!  c #E56B54",
"~  c #E06C55",
"^  c #E06D55",
"/  c #E36C55",
"(  c #E26E56",
")  c #E66D56",
"_  c #E66F57",
"`  c #E86C55",
"'  c #E86D56",
"]  c #EB7259",
"[  c #EC7259",
"{  c #EC7359",
"}  c #EC735A",
"|  c #EE745A",
" . c #EF745B",
".. c #F2755C",
"X. c #F3765C",
/* pixels */
"  + # # $ o , + o @ # # # # # : # # # O & , X + # # #   ",
"@ v M J ^ i ; > f M J U ^ ^ U P I I ^ N > > t M S I S # ",
"3 M G ) ..s - > c Y ! [ ] ] [  .] ]  .Z > > y T / { U # ",
"k D G )  .p ; ; k Y ! ] ] ] ] ] ] ]  .Z > : y G G { U $ ",
": M R ' ..p ; > c T )  . . .{  . . .X.Z > : y G W X.^ = ",
"X y p a h 6 , > e p p d h h h d h d d u > , 3 p p d s X ",
"- * & - - > q 5 : - - - : , , : - - - = 2 q : : : - - = ",
"+ % * - > : > : : : : > = 8 8 = : : : : > > : : : : - + ",
"O j v Z H H S S S S H H i > > y b m H L H H S H H S N O ",
"+ M T ) { { {  .{ { {  .l > > a R ! [ [ [ ] [ ] {  .U $ ",
"# M T ) { { [ ] { ] ]  .l , > a Y E ] ] [ ] ] ] { ] U $ ",
"+ M P _ { { [  .{ { { { l > > a Y ! [ [ [  .[  .{ { U $ ",
"X a f z x x x x x x x x r , > 0 j j n n x x x x x x j o ",
"% % * : > > , > > - : > = 9 9 - ; > > ; , , > : : : : : ",
"% * * - : - q 2 = - - - > > > > 4 k < = 2 q & : = : : = ",
"X a f z n w - - y j z x x x x x Z ) N p : > 5 k h x l o ",
"# M T ' X.s : > c T `  .{ { {  .{ ] { Z > : y T W ] ^ = ",
"+ M G ) X.p - > k G / { { { ] { ] ] { Z , : y R W ] ^ # ",
"# M G ' X.p ; > c T / { { { { { { { { H > ; y R R { U # ",
"O k v C L r ; > a v B S S H H H S H H h > - r b m H N # ",
"+ * - > : = 9 1 - : : : : > > : : > : - 1 9 = ; : : : + ",
"* * % = - > , , : > - - - 9 9 - = - : : , , ; - : - - - ",
"X y p p h h h h s d j h 7 > , 4 p p d d h h d h h h s o ",
"+ M T ' X. .[ X. . . .X.l > > a T !  . . .[ X.[  . .^ $ ",
"+ M J ' [ ] ] ] ] ] ]  .l > , a T Q [ [ ] ] ] ] ] ] I # ",
"# M G ' ] X.] ] ] [ ]  .l > > a Y ! ] [ ] [ [ [ [  .^ # ",
"@ v M ) ^ ^ ^ ^ U P I I d > > y M D I I ^ ^ U I U U P # ",
"  @ 4 v : # # # # # : # X > > . # # # # # # # # # # #   "
};
