/* XPM */
static char *_4fa683b24484bd995c723620c925d7fuXdvCW2W23trY893[] = {
/* columns rows colors chars-per-pixel */
"28 28 140 2 ",
"   c #6C6B69",
".  c #6F6B6A",
"X  c #6D6C6A",
"o  c #6E6D6B",
"O  c #6F6E6C",
"+  c #6F6F6D",
"@  c #706F6D",
"#  c #706E6F",
"$  c #736F6E",
"%  c #71706E",
"&  c #72716F",
"*  c #74706F",
"=  c #716F70",
"-  c #737270",
";  c #747371",
":  c #767271",
">  c #747273",
",  c #777372",
"<  c #767571",
"1  c #747472",
"2  c #757472",
"3  c #757573",
"4  c #767573",
"5  c #777672",
"6  c #757374",
"7  c #747474",
"8  c gray46",
"9  c #767475",
"0  c #777674",
"q  c #777775",
"w  c #777777",
"e  c #797574",
"r  c #787775",
"t  c #797874",
"y  c #7A7975",
"u  c #787876",
"i  c #797876",
"p  c #797977",
"a  c #7A7977",
"s  c #7C7877",
"d  c #797778",
"f  c #777978",
"g  c gray47",
"h  c #797979",
"j  c #7A7879",
"k  c #7A7A78",
"l  c #7B7A78",
"z  c #7B7B79",
"x  c #7B797A",
"c  c gray48",
"v  c #7B7B7B",
"b  c #7D7978",
"n  c #7C7B79",
"m  c #7C7A7B",
"M  c #7A7C79",
"N  c #7C7C7A",
"B  c #7D7C7A",
"V  c #7D7D7B",
"C  c #7E7D7B",
"Z  c #7F7E7A",
"A  c #7D7B7C",
"S  c #7C7C7C",
"D  c gray49",
"F  c #7E7C7D",
"G  c #7E7E7C",
"H  c #7F7E7C",
"J  c #7F7F7D",
"K  c #7F7D7E",
"L  c #7D7F7E",
"P  c #7E7E7E",
"I  c gray50",
"U  c #807F7D",
"Y  c #807E7F",
"T  c #82817D",
"R  c #80807E",
"E  c #81807E",
"W  c #81817F",
"Q  c #82817F",
"!  c #82837E",
"~  c #817F80",
"^  c #7F8180",
"/  c #808080",
"(  c #818181",
")  c #828081",
"_  c #808281",
"`  c #828280",
"'  c #838280",
"]  c #838381",
"[  c #838182",
"{  c #818382",
"}  c gray51",
"|  c #838383",
" . c #848381",
".. c #848283",
"X. c #858480",
"o. c #848482",
"O. c #858482",
"+. c #858583",
"@. c #868583",
"#. c #858384",
"$. c #838584",
"%. c #848484",
"&. c gray52",
"*. c #868485",
"=. c #848685",
"-. c #868684",
";. c #878684",
":. c #878785",
">. c #878586",
",. c #858786",
"<. c #868686",
"1. c gray53",
"2. c #888785",
"3. c #888687",
"4. c #868887",
"5. c #888886",
"6. c #898886",
"7. c #898987",
"8. c #8A8987",
"9. c #878988",
"0. c #888888",
"q. c #898989",
"w. c #888A89",
"e. c #8A8A88",
"r. c #8B8A88",
"t. c #8B8B89",
"y. c #88888A",
"u. c #898B8A",
"i. c gray54",
"p. c #8B8B8B",
"a. c #8C8C8A",
"s. c #8D8B8C",
"d. c #8B8D8C",
"f. c gray55",
"g. c #8D8D8D",
"h. c #8E8E90",
"j. c #909090",
"k. c gray57",
"l. c #939192",
"z. c #929292",
/* pixels */
"w p n l N N W Q Q N w N l K N K ..U U < K l N K N W U Q ",
"( ..N W @...Q N T Q W K N <.@.! n U W W ( l @...@.W a U ",
"w.w.<.g.8.<.3...l.g.w.3.t.8.8.3.( g.j.8.w.w.p.3.<.<.8.k.",
"a n w n W N U p 8.K l l p W T N p <...p n r U U N N N 8.",
"< n N @.Q U ( ..U w N N W @.N W @.W p r N U ;.W W Q Q U ",
"K <.#.3.3.w.w.<.( K ( @.@.<.8.a.<.@.U W @.@.;.<.p.8.;.Q ",
"% a , r r n l , p % p e < p N N < p , < t < p a n p * a ",
"W W p F q.q...U w.#.U N w <.4.@.N 8.<.W W e Q 4.3.W ! p.",
"W @.W L w.<.<.U g...( @.l 9.3.9.L w.8.W @.N { 8.3.@...a.",
"e l o - p , r l K < l < o l , r w K w e p o w ; w r N N ",
"( K N @.( n <.w.9.4.K N / $.v ^ w.9.9.L N K <.K D 4.w.4.",
"W L N K ( r ( ( { ( K L v $.l K { ( ( K K l ^ K l ( ( ..",
"o # % % , = l < - , o % # w # p p * <   o % < # w d w % ",
"N N { W ( w.( ( 4.( l ( ( / 8.( ( @.@.l K ( K <.$.~ ..<.",
"w p K l N N U W W l < N p W n K ( U / 6 D l n K U Q W U ",
"( { N W @.....a W W W T N @.( @.N K U / $.l ;.@.Q W a W ",
"w.w.3.s.w.3.<.( k.g.w.<.w.p.<.<.( g.k.w.3.8.w.4.8.( w.k.",
"n N < N ( N U n 3.U l n r ~ U U l @...p N e U W N n U 3.",
"6 F n @.Q U Q Q ( 6 F l ..@.N ~ ( W p p p T @.W U W Q U ",
"K <.<.@.3.w.w.;.( K ( <.@.3.8.w.3.@.W U @.;.<.3.8.8.@.( ",
"% p , w n n n < p % n e < p l N < e w < p < < l N p < p ",
"W W p n 3.w.$.K w.@.U N r <.<.<.T 3.@.U U e ..9.8.K ( w.",
"W ;.( / 9.3.<.( g.( ..( K 9.<.9.K w.@.W <.N @.3.q.( #.w.",
"e p o - r , r l N < t < o l , p p N r r p o < w < r N l ",
"W N N @.@.l $.t.w.$.K v ^ <.l L w.8.<.^ K D <./ D 3.9.9.",
"W K N K ( w { ( ( $.K K l <.f / ( ( ( ^ ^ l ^ D f #.( ( ",
"o % % ; , % r r , - X # % < # p p , w o o % < % 6 l 6 6 ",
"D l ^ D ( 3...( <.W d W L L 8.( W { @.l N ( K <.<.....<."
};
