/* XPM */
static char *f3fc0fda021d48c5a5daae82de3ce4dcmKlH033QwuFmhIEt[] = {
/* columns rows colors chars-per-pixel */
"28 28 65 1 ",
"  c #060604",
". c #080706",
"X c #070804",
"o c #0A0A06",
"O c #0D0D0A",
"+ c #100F0C",
"@ c #0F1006",
"# c #0F100A",
"$ c #111307",
"% c #13120D",
"& c #1B150D",
"* c #17180A",
"= c #1A1B0C",
"- c #151511",
"; c #181712",
": c #191915",
"> c #1B1914",
", c #1A1A15",
"< c #1A1B15",
"1 c #1D1B16",
"2 c #1E1C14",
"3 c #1E1D17",
"4 c #1F1D18",
"5 c #1E1E19",
"6 c #1F1F1A",
"7 c #201E15",
"8 c #211F15",
"9 c #201F16",
"0 c #211E19",
"q c #201E1A",
"w c #1D200F",
"e c #1F2017",
"r c #212117",
"t c #222118",
"y c #23221A",
"u c #25241B",
"i c #27241B",
"p c #22221D",
"a c #24231C",
"s c #24241C",
"d c #24241D",
"f c #26241E",
"g c #28271F",
"h c #29291D",
"j c #302B1E",
"k c #2A2720",
"l c #2A2A21",
"z c #282822",
"x c #2D2A22",
"c c #2E2F26",
"v c #2F2D28",
"b c #302D24",
"n c #303021",
"m c #333326",
"M c #353229",
"N c #37352C",
"B c #393528",
"V c #39352C",
"C c #38362D",
"Z c #3A3A32",
"A c #393934",
"S c #3F3C34",
"D c #403E37",
"F c #4A493C",
"G c #666455",
/* pixels */
"o@oo X*o$ooX**o$oo$oo$o$o@@o",
"%@oXXooo$oXX$oo*%&$$@o$o$$$*",
"Xo%>=O@ @*w*%=Oute%o$$$@oo@$",
"  .%-%@o@$$8hdt3%>%O$$*e@XoX",
"X.oOZz3rr;a-gz;d<6Ah%ee>*%oO",
" .%%ASk3h-;-;-O%OO;;-tve1$Oo",
"OoOt1z-%n34dmp=0zep-e<GF----",
"oOo-#O%Ooo  OOoo>#OO%oMNOOo ",
"#O%#<d;;><-0v44e0<%4>cN>;+%D",
" XO#<e%;%o+;--%-OO+O#epOo++%",
"Oo#O%-;;OOrtO<-%+O++eeAN1b++",
" O;t#<4-pdthd--#++p-ve>pu1%+",
" oO-OoO%%%%3eO% -o>-1ijDu::o",
"d%-;;;p>1;1<::o%+;:;-1180;>%",
"%Oo%%%--+O%O o +oo%%+Oo+.@@o",
"o-o-O-=%%ut%O%34-;t011>80%%%",
" ooO + .O O-OO :o.%o+O. Oo  ",
"OooO-Oo++.-;O0ZO.o+.%+0x;0>+",
"   o+..o..o oo--O+Oo-O++-OOo",
"OoOo%%1+ooo:-%>-1:%kOo.%+OO%",
"..Ooo+OO -:4pOO---qOO+--+:O ",
"O.O.+.OO >4vM&8%-OO-.44+0-;O",
".+%oO%OoO;O;%8;%+>O--+-o++++",
".O+oOO o+ooo%++OO.OO.o O+08-",
".o..O+%%-OOO0+++OO++OOO++--+",
"##.Oo--->OO>Mz1O;O-+-4--:--+",
" O+OO->-;>OOq+-O%6+-:-%-+:--",
" -OOOOOOOO-;6##:%+ %--:>% + "
};
