/* XPM */
static char *c23694f322a441b4fd50be2a105ed547aNEBPpUImcPRNvax[] = {
/* columns rows colors chars-per-pixel */
"64 64 229 2 ",
"   c None",
".  c black",
"X  c #010101",
"o  c #020101",
"O  c #020202",
"+  c #030202",
"@  c #040202",
"#  c #040203",
"$  c #040303",
"%  c #060404",
"&  c #080606",
"*  c #080607",
"=  c #090708",
"-  c #0F0909",
";  c #110909",
":  c #110A0B",
">  c #130A0A",
",  c #130B0C",
"<  c #170C0C",
"1  c #170E0F",
"2  c #190D0D",
"3  c #190F10",
"4  c #131010",
"5  c #1F1314",
"6  c #1C1718",
"7  c #1D1818",
"8  c #1E1919",
"9  c #201011",
"0  c #201314",
"q  c #251F1F",
"w  c #2E2627",
"e  c #302122",
"r  c #3F2022",
"t  c #3F2628",
"y  c #372A2B",
"u  c #372E2E",
"i  c #382F2F",
"p  c #392F30",
"a  c #472426",
"s  c #472B2D",
"d  c #4F282A",
"f  c #572C2E",
"g  c #582D2F",
"h  c #5D2F32",
"j  c #403132",
"k  c #403536",
"l  c #4F3032",
"z  c #433838",
"x  c #573537",
"c  c #5F3033",
"v  c #583538",
"b  c #5D383B",
"n  c #5F393C",
"m  c #693538",
"M  c #6C373A",
"N  c #763C3F",
"B  c #773C3F",
"V  c #523F41",
"C  c #693F43",
"Z  c #793D41",
"A  c #7B3E42",
"S  c #4D4041",
"D  c #4E4142",
"F  c #524445",
"G  c #554748",
"H  c #564749",
"J  c #5A4B4C",
"K  c #5F4F50",
"L  c #6C4145",
"P  c #76474B",
"I  c #77484C",
"U  c #79494D",
"Y  c #7B4A4E",
"T  c #664F50",
"R  c #665354",
"E  c #665556",
"W  c #685658",
"Q  c #695759",
"!  c #6A5859",
"~  c #705D5E",
"^  c #715E5F",
"/  c #775C5E",
"(  c #756163",
")  c #776162",
"_  c #776364",
"`  c #786465",
"'  c #7A6567",
"]  c #7B6668",
"[  c #7C6769",
"{  c #814145",
"}  c #884549",
"|  c #884649",
" . c #88474B",
".. c #8B464A",
"X. c #8C474B",
"o. c #88494C",
"O. c #884A4E",
"+. c #884C4F",
"@. c #934A4E",
"#. c #944B4F",
"$. c #814E52",
"%. c #884D51",
"&. c #994D52",
"*. c #994F53",
"=. c #885256",
"-. c #8B5458",
";. c #8C5559",
":. c #995054",
">. c #995256",
",. c #995358",
"<. c #995559",
"1. c #99575B",
"2. c #93595D",
"3. c #94595E",
"4. c #A25256",
"5. c #A9555A",
"6. c #AF595D",
"7. c #995C61",
"8. c #B95E63",
"9. c #BB5F64",
"0. c #896A6C",
"q. c #856F70",
"w. c #866F71",
"e. c #877072",
"r. c #897274",
"t. c #8B7475",
"y. c #8C7476",
"u. c #8D7577",
"i. c #8F7779",
"p. c #997679",
"a. c #907879",
"s. c #91797A",
"d. c #92797B",
"f. c #947B7D",
"g. c #957C7E",
"h. c #967D7E",
"j. c #997C7F",
"k. c #A26267",
"l. c #A9666B",
"z. c #AF6A6F",
"x. c #BB6065",
"c. c #BB6267",
"v. c #BB6469",
"b. c #BB666C",
"n. c #BB686E",
"m. c #B26B71",
"M. c #BB6A70",
"N. c #B97076",
"B. c #BB7177",
"V. c #CA666C",
"C. c #CC676D",
"Z. c #CC696E",
"A. c #CC6B71",
"S. c #CC6D73",
"D. c #CC6F76",
"F. c #CC7278",
"G. c #CC747A",
"H. c #E7757B",
"J. c #987E80",
"K. c #997F81",
"L. c #CA7A80",
"P. c #CC7B82",
"I. c #D17E86",
"U. c #9A8082",
"Y. c #9B8183",
"T. c #9D8384",
"R. c #9E8385",
"E. c #9F8486",
"W. c #A18688",
"Q. c #A78B8D",
"!. c #A88C8E",
"~. c #A98C8E",
"^. c #AA8D8F",
"/. c #AB8E90",
"(. c #AC8F91",
"). c #AD9092",
"_. c #AE9193",
"`. c #B29496",
"'. c #B49698",
"]. c #B59699",
"[. c #B69799",
"{. c #BD9D9F",
"}. c #C5898D",
"|. c #DA848A",
" X c #E0878E",
".X c #FF8188",
"XX c #FF838A",
"oX c #FF868D",
"OX c #E28890",
"+X c #E78C93",
"@X c #EA8D95",
"#X c #FF8890",
"$X c #FF8B93",
"%X c #FF8E96",
"&X c #EF9098",
"*X c #F4939B",
"=X c #FF9199",
"-X c #FA979F",
";X c #FD99A1",
":X c #FF9AA2",
">X c #C0A0A2",
",X c #C1A0A3",
"<X c #C2A1A4",
"1X c #C3A2A4",
"2X c #C6A5A7",
"3X c #C8A6A9",
"4X c #CBA9AB",
"5X c #CDAAAD",
"6X c #CEABAE",
"7X c #CFACAF",
"8X c #D5B1B4",
"9X c #D6B2B4",
"0X c #D7B3B5",
"qX c #DDB8BA",
"wX c #DEB9BB",
"eX c #FFB1B7",
"rX c #E4BEC0",
"tX c #EEC6C9",
"yX c #EFC7CA",
"uX c #FFC5C9",
"iX c #F0C8CA",
"pX c #F6CDCF",
"aX c #F7CDD0",
"sX c #F8CED1",
"dX c #FFCFD3",
"fX c #FBD1D4",
"gX c #FCD2D4",
"hX c #FED3D6",
"jX c #FFD4D7",
/* pixels */
"                                                                                                                                ",
"                                                                                                                                ",
"                                                                                                                                ",
"                                                                                                                                ",
"                                                                                                                                ",
"                                                                                                                                ",
"                                                                                                                                ",
"                                                                                                                                ",
"                                                                                                                                ",
"  . . .       . . . . . . .           . . . . . . . . . . . . .           . . . . . . . . . . . . . .         . . . . . . . .   ",
". . . . 0 :XI.. . . . . . . .       . . . . . . . . . . . . . . .       . . . . . . . . . . . . . . .       . . . . . . . . . . ",
". 4 P.P.*X:X:X XP.P.P.P.C.c .       . . P.P.P.P.P.P.P.P.P.P.Z.B . .     . . B.P.P.P.P.P.P.P.P.P.A.X.. .     . . k.P.P.P.G.C.2 . ",
". 0 :X:X:X:X:X:X:X:X:X:X.XB . . . . . $ :X:X:X:X:X:X:X:X:X:XXX@.. . . . . . +X:X:X:X:X:X:X:X:X:XoX6.. . . . . . L.:X:X:X=X.X9 . ",
". 0 :X:X:X:X:X:X:X:X:X:X.XB . i H H = $ :X:X:X:X:X:X:X:X:X:XXX@.. w G H 4 . +X:X:X:X:X:X:X:X:X:XoX6.. q G G 6 . L.:X:X:X=X.X9 . ",
". 0 :X:X:X:X:X:X:X:X:X:X.XB . !.jXjX6 $ :X:X:X:X:X:X:X:X:X:XXX@.. y.jXjXi . +X:X:X:X:X:X:X:X:X:XoX6.. ~ jXjXG . L.:X:X:X=X.X9 . ",
". 0 :X:X:X:X:X:X:X:X:X:X.XB . !.jXgX6 $ :X:X:X:X:X:X:X:X:X:XXX@.. y.jXjXi . +X:X:X:X:X:X:X:X:X:XoX6.. ~ jXjXG . L.:X:X:X=X.X9 . ",
". : =.=.=.=.=.=.=.=.=.=.} r . !.jXjX7 . =.=.=.=.=.=.=.=.=.=.} d . i.jXjXp . Y =.=.=.=.=.=.=.=.=.} c . ^ jXjXH . L =.=.=.%.} ; . ",
". . . . . . . . . . . . . . * wXjXjXJ . . . . . . . . . . . . . . 3XjXjX_ . . . . . . . . . . . . . . _.jXjXa.. . . . . . . . . ",
"    . . F K.K.K.K.K.K.K.K.Y.0XjXjXjXsXQ.K.K.U.U.K.K.K.K.K.K.K.K.6XjXjXjXfX_.K.K.K.K.K.K.K.K.K.K.K.U.<XjXjXjXjX[.U.j.p.V . .     ",
"      . r.jXjXjXjXjXjXjXjXjXjXjXjXjXjXjXjXjXjXjXjXjXjXjXjXjXjXjXjXjXjXjXjXjXjXjXjXjXjXjXjXjXjXjXjXjXjXjXjXjXjXjXjXgXuX0..       ",
"      . r.jXjXjXjXjXjXjXjXjXjXjXjXjXjXjXjXjXjXjXjXjXjXjXjXjXjXjXjXjXjXjXjXjXjXjXjXjXjXjXjXjXjXjXjXjXjXjXjXjXjXjXjXdXuX0..       ",
"  . . . u E E E w.aXjXjXfXa.E E E E E E E E E E E E [ tXjXjXjXT.E E E E E E E E E E E E _ rXjXjXjX/.Q E E E E E E R T y . . .   ",
". . . . . . . . . [ jXjXh.. . . . . . . . . . . . . . K jXjX`.. . . . . . . . . . . . . . z jXjX6X. . . . . . . . . . . . . . . ",
". 1 B.B.B.B.v.#.. G jXjX~ . $.B.B.B.B.B.B.B.B.B.b.5.. p jXjXy.. L B.B.B.B.B.B.B.B.B.n.9.. 6 jXjXQ.. v B.B.B.B.B.B.B.B.B.M.9.2 . ",
". 0 :X:X:X:X#XV.. G jXjX~ . z.:X:X:X:X:X:X:X:X:X#XH.. i jXjXt.. 2.:X:X:X:X:X:X:X:X:X%X.X$ 6 jXjX!.. I :X:X:X:X:X:X:X:X:X=X.X9 . ",
". 0 :X:X:X:X#XV.. G jXjX~ . z.:X:X:X:X:X:X:X:X:X%XH.. i jXjXt.. 2.:X:X:X:X:X:X:X:X:X%X.X$ 6 jXjX!.. I :X:X:X:X:X:X:X:X:X=X.X9 . ",
". 0 :X:X:X:X#XV.. G jXjX~ . z.:X:X:X:X:X:X:X:X:X#XH.. i jXjXt.. 2.:X:X:X:X:X:X:X:X:X%X.X$ 6 gXjX!.. I :X:X:X:X:X:X:X:X:X=X.X9 . ",
". 0 :X:X:X:X#XV.. G jXjX~ . z.:X:X:X:X:X:X:X:X:X%XH.. i jXjXt.. 2.:X:X:X:X:X:X:X:X:X%X.X$ 6 gXjX!.. I :X:X:X:X:X:X:X:X:X=X.X9 . ",
". : 7.7.7.7.>.Z . G jXjX~ . C 7.7.7.7.7.7.7.7.7.,.} . p jXjXy.. v 7.7.7.7.7.7.7.7.7.1.&.. 7 jXjX!.. s 7.|.:X:Xm.7.7.7.7.1.&.; . ",
". . . . . . . . . e.jXjXW.. . . . . . . . . . . . . . ! jXjX{.. . . . . . . . . . . . . . D jXjX0X. . . e eX}.. . . . . . . . . ",
"    . . k ` _ _ E.gXjXjXgX/._ _ _ _ _ _ _ _ _ _ ` _ h.sXjXjXjX[.` ` _ _ _ _ _ _ ` ) ` ) i.iXjXjXjX<X[ ` ,XjXsXi.` ) / j . .     ",
"      . r.jXjXjXjXjXjXjXjXjXjXjXjXjXjXjXjXjXjXjXjXjXgXjXjXjXjXjXjXjXjXjXjXjXjXjXjXjXjXjXjXjXjXjXjXjXjXjXjXjXjXjXjXdXuX0..       ",
"      . r.jXjXjXjXjXjXjXjXjXjXjXjXjXjXjXjXjXjXjXjXjXjXjXjXjXjXjXjXjXjXjXjXjXjXjXjXjXjXjXjXjXjXjXjXjXjXjXjXjXjXjXjXdXuX0..       ",
"    . . k _ _ _ _ _ _ _ _ [ <XjXjXjXtXy._ _ _ _ _ _ _ _ _ _ ` ` [.jXjXjXaXf._ _ ` ` _ _ _ _ _ _ _ ` /.gXjXjXfXT.) ) / j . .     ",
". . . . . . . . . . . . . . $ 0XjXjXD . . . . . . . . . . . . . . {.jXjXQ . . . . . . . . . . . . . . W.jXjXw.. . . . . . . . . ",
". : 7.7.7.7.7.7.7.7.7.7.&.a . !.jXjX7 . 7.7.7.7.7.7.7.7.7.7.*.h . y.jXjXi . -.7.7.7.7.7.7.7.7.7.>.m . ~ jXjXG . Y 7.7.7.1.&.; . ",
". 0 :X:X:X:X:X:X:X:X:X:X.XB . !.jXjX6 $ :X:X:X:X:X:X:X:X:X:XXX@.. t.jXjXi . +X:X:X:X:X:X:X:X:X:XoX6.. ~ jXjXG . L.:X:X:X=X.X9 . ",
". 0 :X:X:X:X:X:X:X:X:X:X.XB . !.jXjX6 $ :X:X:X:X:X:X:X:X:X:XXX@.. t.jXjXi . +X:X:X:X:X:X:X:X:X:XoX6.. ~ jXjXG . L.:X:X:X=X.X9 . ",
". 0 :X:X:X:X:X:X:X:X:X:X.XB . !.jXjX6 $ :X:X:X:X:X:X:X:X:X:X.X@.. t.jXjXi . +X:X:X:X:X:X:X:X:X:XoX6.. ~ jXjXG . L.:X:X:X=X.X9 . ",
". 0 :X:X:X:X:X:X:X:X:X:X.XZ . !.jXjX6 $ :X:X:X:X:X:X:X:X:X:X.X@.. t.jXjXi . +X:X:X:X:X:X:X:X:X:XoX6.. ~ jXjXG . L.:X:X:X=X.X9 . ",
". 1 B.B.B.B.B.B.B.B.B.B.9.f . !.jXjX6 . B.B.B.B.B.B.B.B.B.B.c.M . r.jXjXi . l.B.B.B.B.B.B.B.B.B.c.{ . ~ jXjXG . 3.B.B.B.M.9.2 . ",
". . . . . . . . . . . . . . . 7XjXjXz . . . . . . . . . . . . . . [.jXjXK . . . . . . . . . . . . . . K.jXjX] . . . . . . . . . ",
"  . . . u E E E E E E E E Q (.jXjXjXrX( E E Q E E E E E E E E E E.jXjXjXtX[ E E E E E E E E E E E E a.gXjXjXpXw.E R T y . . .   ",
"      . r.jXjXjXjXjXjXjXjXjXjXjXjXjXjXjXjXjXjXgXjXjXjXjXjXjXjXjXjXjXjXjXjXjXjXjXjXjXjXjXjXjXjXjXjXjXjXjXjXjXjXjXjXgXuX0..       ",
"      . r.jXjXjXjXjXjXjXjXjXjXjXjXjXjXjXjXjXjXjXjXjXjXjXjXjXjXjXjXjXjXjXjXjXjXjXjXjXjXjXjXjXjXjXjXgXjXjXjXjXjXjXjXdXuX0..       ",
"    . . F U.K.K.[.jXjXjXjX,XK.K.K.K.K.K.K.K.K.K.K.U.).gXjXjXjX6XK.K.K.K.K.K.K.K.K.K.K.K.Q.sXjXjXjX0XU.K.K.K.K.K.K.j.p.V . .     ",
". . . . . . . . . f.jXjX/.. . . . . . . . . . . . . . ) jXjX3X. . . . . . . . . . . . . . J jXjXqX= . . . . . . . . . . . . . . ",
". ; =.=.=.=.O.M . G jXjX^ . n =.=.=.=.=.=.=.=.=.O.Z . i jXjXy.. l =.=.=.=.=.=.=.=.=.+.} . 7 jXjX/.. t =.=.=.=.=.=.=.=.=.%.} ; . ",
". 0 :X:X:X:X#XV.. G jXjX~ . z.:X:X:X:X:X:X:X:X:X#XH.. i jXjXt.. 2.:X:X:X:X:X:X:X:X:X%X.X. 7 jXjXQ.. I :X:X:X:X:X:X:X:X:X=X.X9 . ",
". 0 :X:X:X:X#XV.. G jXjX~ . z.:X:X:X:X:X:X:X:X:X%XH.. i jXjXt.. 2.:X:X:X:X:X:X:X:X:X%X.X$ 7 jXjX!.. I :X:X:X:X:X:X:X:X:X=X.X9 . ",
". 0 :X:X:X:XoXC.. 6 G G q . z.:X:X:X:X:X:X:X:X:X#XH.. 4 G G w . 2.:X:X:X:X:X:X:X:X:X%X.X$ = H H p . I :X:X:X:X:X:X:X:X:X=X.X9 . ",
". 0 :X:X:X:X#XC.. . . . . . z.:X:X:X:X:X:X:X:X:X%XH.. . . . . . 2.:X:X:X:X:X:X:X:X:X%X.X$ . . . . . I :X:X:X:X:X:X:X:X:X=X.X9 . ",
". 4 P.P.P.P.D.4.. .     . . ;.P.P.@X:X:X&XP.P.P.D.9.. .     . . P P.P.P.P.P.P.P.P.P.F.C.. .       . n P.P.P.P.P.P.P.P.P.G.C.2 . ",
". . . . . . . . . .       . . . . % OX-X- . . . . . . .       . . . . . . . . . . . . . . .       . . . . . . . . . . . . . . . ",
"  . . . . . . . .         . . . . .     . . . . . . .           . . . . . . . . . . . . .           . . . . . . . . . . . . .   ",
"                                                                                                                                ",
"                                                                                                                                ",
"                                                                                                                                ",
"                                                                                                                                ",
"                                                                                                                                ",
"                                                                                                                                ",
"                                                                                                                                ",
"                                                                                                                                ",
"                                                                                                                                "
};
