/* XPM */
static char *_fe26f57de8640539773133f07ff522ejbRowl6C5EkdH0Zw[] = {
/* columns rows colors chars-per-pixel */
"64 64 53 1 ",
"  c None",
". c black",
"X c #010000",
"o c #010100",
"O c #020101",
"+ c #030201",
"@ c #070402",
"# c #070502",
"$ c #090503",
"% c #0A0503",
"& c #090603",
"* c #0B0604",
"= c #100905",
"- c #110906",
"; c #100B06",
": c #110B06",
"> c #190E09",
", c #191109",
"< c #20110B",
"1 c #20120B",
"2 c #20150B",
"3 c #22130C",
"4 c #22170C",
"5 c #502C1B",
"6 c #51361D",
"7 c #5C321F",
"8 c #5C3D20",
"9 c #603421",
"0 c #713E27",
"q c #614122",
"w c #724C28",
"e c #E67D4E",
"r c #E77E4F",
"t c #E87E4F",
"y c #FF8B57",
"u c #FF8C57",
"i c #FF8D57",
"p c #FF8D58",
"a c #E79A52",
"s c #FF9A58",
"d c #FF9B58",
"f c #FF9B59",
"g c #FF9C59",
"h c #FF9D59",
"j c #FF9E59",
"k c #FFA659",
"l c #FFA759",
"z c #FFA65A",
"x c #FFA75A",
"c c #FFA859",
"v c #FFA85A",
"b c #FFA95A",
"n c #FFAA5A",
/* pixels */
"                                                                ",
"                                                                ",
"                                                                ",
"                                                                ",
"                                                                ",
"                                                                ",
"                                                                ",
" .............................................................. ",
"..$3444444444.+4344444444444444444444444444444444..3344444444$..",
".*tunnnnnnnnn#>yunnnnnnnnnnnnnnnnnnnnnnnnnnnnnnnn,$yynnnnnnnna$.",
".3yynnnnnnnnn$>yunnnnnnnnnnnnnnnnnnnnnnnnnnnnnnnn,@yynnnnnnnnn4.",
".3yynnnnnnnnn+>yunnnnnnnnnnnnnnnnnnnnnnnnnnnnnnnn,+yynnnnnnnnn4.",
".,yynnnnnnnnn#>yunnnnnnnnnnnnnnnnnnnnnnnnnnnnnnnn,#yyznnnnnnnn,.",
".3yynnnnnnnnn#>yunnnnnnnnnnnnnnnnnnnnnnnnnnnnnnnn,#yynnnnnnnnn4.",
".,yynnnnnnnnn#>yyznnnnnnnnnnnnnnnnnnnnnnnnnnnnnnn,+yyznnnnnnnn4.",
".3yyhnnnnnnnn#>yyhnnnnnnnnnnnnnnnnnnnnnnnnnnnnnnn,#yysnnnnnnnn4.",
".3yyyfznnnnnn#>yyufznnnnnnnnnnnnnnnnnnnnnnnnnnnnn,#yyyfznnnnnn4.",
".3yyyyyyyyyyy#>yyyyyyyyyyyyyyyyyyyyyyyyyyyyyyyyyy>+yyyyyyyyyyy3.",
".3yyyyyyyyuuy#>yyyyyyyyyyyyuyyyyyyyyyyuuyyyyyyuuy>$yyyypyyyyyy,.",
"..-----9yy5--..----------------------------------..-----------+.",
"..---::wnn8:::--::::-::::::::::..---::::-:::-:::-:::::::::----..",
".3yunnnnnnnnnnnnnnnnnnnnnnnnnnn;-uunnnnnnnnnnnnnnnnnnnnnnnnnnn4.",
".3yunnnnnnnnnnnnnnnnnnnnnnnnnnn;-yunnnnnnnnnnnnnnnnnnnnnnnnnnn4.",
".,uunnnnnnnnnnnnnnnnnnnnnnnnnnn;;yynnnnnnnnnnnnnnnnnnnnnnnnnnn4.",
".3yynnnnnnnnnnnnnnnnnnnnnnnnnnn;;yynnnnnnnnnnnnnnnnnnnnnnnnnnn,.",
".3yynnnnnnnnnnnnnnnnnnnnnnnnnnn;*yynnnnnnnnnnnnnnnnnnnnnnnnnnn4.",
".>yynnnnnnnnnnnnnnnnnnnnnnnnnnn;-yyznnnnnnnnnnnnnnnnnnnnnnnnnn4.",
".3yyhnnnnnnnnnnnnnnnnnnnnnnnnnn;=yysnnnnnnnnnnnnnnnnnnnnnnnnnn4.",
".3yyyhznnnnnnnnnnnnnnnnnnnnnnnn;-yyyfznnnnnnnnnnnnnnnnnnnnnnnn,.",
".3yyyyyyyyyyyyyyyuyyyyyyyyyyyyu-=yyyyyyyyyyyyyyyyyyyyyyyyyyyyy3.",
".3yyyyyyyyyyyyyyyyyyyyyyyyyyyyy-=yyyyyyyyyyyyyyyyyyyyyyyyyyyyu3.",
"..-----------------------------..-----------------------------..",
"..--::::::::-..--::::::::::::::-::::::::-::::::::..---::::::::..",
".3yunnnnnnnnn$>yunnnnnnnnnnnnnnnnnnnnnnnnnnnnnnnn,#uynnnnnnnnn4.",
".3yunnnnnnnnn#>yunnnnnnnnnnnnnnnnnnnnnnnnnnnnnnnn,#yyznnnnnnnn4.",
".,uunnnnnnnnn#>yunnnnnnnnnnnnnnnnnnnnnnnnnnnnnnnn,#yynnnnnnnnn4.",
".3yynnnnnnnnn#>yunnnnnnnnnnnnnnnnnnnnnnnnnnnnnnnn,+uynnnnnnnnn,.",
".3yynnnnnnnnn#>yunnnnnnnnnnnnnnnnnnnnnnnnnnnnnnnn,#yynnnnnnnnn4.",
".>yynnnnnnnnn#>yynnnnnnnnnnnnnnnnnnnnnnnnnnnnnnnn,+yyznnnnnnnn4.",
".3yyhnnnnnnnn#>yyhnnnnnnnnnnnnnnnnnnnnnnnnnnnnnnn,$yyfnnnnnnnn4.",
".3yyphznnnnnn#>yyyhnnnnnnnnnnnnnnnnnnnnnnnnnnnnnn,+yyyhznnnnnn,.",
".3yyyyyyyyyyy#>yyyyyyyyyyyyyyyyyuyyyyyyyyyyyyyyyy>$yyyyyyyyyyy3.",
".3yyyyyyyyyuy#>yyyyyyyyyuyuuyyyyyyyyyyuuyyyyyyuuy>#yyyyyyyyyyy3.",
"..-----------..----------------------------------..--7yu0-----..",
"..---:::::::::::::::--:::::::::..----:::-:::::::-::::6nnq:---:..",
".3yunnnnnnnnnnnnnnnnnnnnnnnnnnn;-uynnnnnnnnnnnnnnnnnnnnnnnnnnn4.",
".3yunnnnnnnnnnnnnnnnnnnnnnnnnnn;-yynnnnnnnnnnnnnnnnnnnnnnnnnnn4.",
".,uunnnnnnnnnnnnnnnnnnnnnnnnnnn;;yynnnnnnnnnnnnnnnnnnnnnnnnnnn4.",
".3yynnnnnnnnnnnnnnnnnnnnnnnnnnn;-yunnnnnnnnnnnnnnnnnnnnnnnnnnn4.",
".3yynnnnnnnnnnnnnnnnnnnnnnnnnnn;;yynnnnnnnnnnnnnnnnnnnnnnnnnnn4.",
".>yynnnnnnnnnnnnnnnnnnnnnnnnnnn;=yuznnnnnnnnnnnnnnnnnnnnnnnnnn,.",
".3yyhnnnnnnnnnnnnnnnnnnnnnnnnnn;=yuhnnnnnnnnnnnnnnnnnnnnnnnnnn4.",
".3yyuhnnnnnnnnnnnnnnnnnnnnnnnnn-=yyyhznnnnnnnnnnnnnnnnnnnnnnnn4.",
".3yyyyuuuuuuuuuuuuuuuuuuuuuuuuu-=yyyyyuuuiiiuuuuuuuuuuuuuuuuuu3.",
".*tyyyyyuyyyyyuuyyyyuuyyuyyyuyy-=yyyyyyyyyuuyyyyuyyyuyyyuuyyye$.",
"..$3333333333334333334334333433..3333333333433334333433334333$..",
" .............................................................. ",
"                                                                ",
"                                                                ",
"                                                                ",
"                                                                ",
"                                                                ",
"                                                                ",
"                                                                "
};
